<svg
    xmlns="http://www.w3.org/2000/svg"
    viewBox="0 0 48 48"
    fill="currentColor"
>
    <path
    fill="#6c19ff"
    d="M44,20l0,9.749c0,3.285-2.532,6.15-5.816,6.249C34.786,36.099,32,33.375,32,30l3.109-10H44z M38,16	c2.209,0,4-1.791,4-4s-1.791-4-4-4s-4,1.791-4,4S35.791,16,38,16z"
    ></path>
    <path
    fill="#a64aff"
    d="M34.878,35.125c-1.04,4.709-5.457,8.183-10.542,7.854C19.02,42.634,15,37.983,15,32.656V20h17	C32,20,35.029,34.44,34.878,35.125z M25,17c3.314,0,6-2.686,6-6s-2.686-6-6-6s-6,2.686-6,6S21.686,17,25,17z"
    ></path>
    <path
    fill="#6c19ff"
    d="M15.089,34H4V14h15.809L24,16.91V20L15.089,34z"
    ></path>
    <path
    fill="#2100c4"
    d="M19.809,14c0.87,1.52,2.4,2.61,4.19,2.91V14H19.809z M14.999,20v12.66c0,0.45,0.03,0.9,0.09,1.34	h8.91V20H14.999z"
    ></path>
    <path
    fill="#ddbaff"
    d="M18.068,18.999H9.932v1.72h3.047v8.28h2.042v-8.28h3.047V18.999z"
    ></path>
    <path
    fill="#2100c4"
    d="M37.999,8c-2.21,0-4,1.79-4,4s1.79,4,4,4c2.21,0,4-1.79,4-4S40.209,8,37.999,8z M31.999,20v10	c0,2.17,1.15,4.07,2.88,5.12c0.15-0.68,0.23-1.39,0.23-2.12V20H31.999z"
    ></path>
</svg>